<svg width="48" height="46" viewBox="0 0 48 46" fill="none" xmlns="http://www.w3.org/2000/svg">
<path d="M16.6667 18.4444H23.5H30.3333M39.4444 15.7111C39.4444 6.90524 32.3059 2.5 23.5 2.5C14.6941 2.5 7.55556 9.63858 7.55556 18.4444V43.5M3 43.5C3 43.5 12.5667 43.5 22.5889 43.5" stroke="white" stroke-width="4.55556" stroke-linecap="round" stroke-linejoin="round"/>
<path d="M29.4219 43.5C29.4219 38.8035 33.0931 34.9963 37.6219 34.9963C42.1506 34.9963 45.8219 38.8035 45.8219 43.5M42.3076 26.4926C42.3076 29.1763 40.2097 31.3518 37.6219 31.3518C35.034 31.3518 32.9362 29.1763 32.9362 26.4926C32.9362 23.8089 35.034 21.6333 37.6219 21.6333C40.2097 21.6333 42.3076 23.8089 42.3076 26.4926Z" stroke="white" stroke-width="2.73333" stroke-linecap="round" stroke-linejoin="round"/>
</svg>
