<svg width="50" height="45" viewBox="0 0 50 45" fill="none" xmlns="http://www.w3.org/2000/svg">
<path d="M3 22.5H27.4444M3 22.5C3 33.5458 11.9543 42.5 23 42.5M3 22.5C3 11.4543 11.9543 2.5 23 2.5M23 42.5C23.7511 42.5 24.4927 42.4587 25.2222 42.378M23 42.5C6.90136 24.9 16.2922 8.5 23 2.5M23 2.5C31.7082 2.5 39.1165 8.06538 41.862 15.8333M23 2.5C25.9776 5.1634 29.4838 9.87609 31.0547 15.8333" stroke="white" stroke-width="4.44445" stroke-linecap="round" stroke-linejoin="round"/>
<path d="M32.084 42.4998C32.084 37.9179 35.6657 34.2035 40.084 34.2035C44.5023 34.2035 48.084 37.9179 48.084 42.4998M44.6554 25.9072C44.6554 28.5255 42.6087 30.648 40.084 30.648C37.5593 30.648 35.5126 28.5255 35.5126 25.9072C35.5126 23.289 37.5593 21.1665 40.084 21.1665C42.6087 21.1665 44.6554 23.289 44.6554 25.9072Z" stroke="white" stroke-width="2.66667" stroke-linecap="round" stroke-linejoin="round"/>
</svg>
